ffmpeg started on 2024-10-14 at 13:43:13
Report written to "./logs/ffreport.log"
Command line:
ffmpeg -y -i ./videos/muxed.mp4 -filter_complex "drawbox=x=iw-w-10:y=ih/2-h/2-10:w=iw-20:h=150:t=fill:color=black@0.4, subtitles=./subtitles/al-fatihah.srt:fontsdir='./fonts':charenc='utf-8':force_style='shadowcolor=Black,MarginV=100'" -c:a copy ./output/subtitle.mp4
ffmpeg version 4.2.7-0ubuntu0.1 Copyright (c) 2000-2022 the FFmpeg developers
  built with gcc 9 (Ubuntu 9.4.0-1ubuntu1~20.04.1)
  configuration: --prefix=/usr --extra-version=0ubuntu0.1 --toolchain=hardened --libdir=/usr/lib/x86_64-linux-gnu --incdir=/usr/include/x86_64-linux-gnu --arch=amd64 --enable-gpl --disable-stripping --enable-avresample --disable-filter=resample --enable-avisynth --enable-gnutls --enable-ladspa --enable-libaom --enable-libass --enable-libbluray --enable-libbs2b --enable-libcaca --enable-libcdio --enable-libcodec2 --enable-libflite --enable-libfontconfig --enable-libfreetype --enable-libfribidi --enable-libgme --enable-libgsm --enable-libjack --enable-libmp3lame --enable-libmysofa --enable-libopenjpeg --enable-libopenmpt --enable-libopus --enable-libpulse --enable-librsvg --enable-librubberband --enable-libshine --enable-libsnappy --enable-libsoxr --enable-libspeex --enable-libssh --enable-libtheora --enable-libtwolame --enable-libvidstab --enable-libvorbis --enable-libvpx --enable-libwavpack --enable-libwebp --enable-libx265 --enable-libxml2 --enable-libxvid --enable-libzmq --enable-libzvbi --enable-lv2 --ena  libavutil      56. 31.100 / 56. 31.100
  libavcodec     58. 54.100 / 58. 54.100
  libavformat    58. 29.100 / 58. 29.100
  libavdevice    58.  8.100 / 58.  8.100
  libavfilter     7. 57.100 /  7. 57.100
  libavresample   4.  0.  0 /  4.  0.  0
  libswscale      5.  5.100 /  5.  5.100
  libswresample   3.  5.100 /  3.  5.100
  libpostproc    55.  5.100 / 55.  5.100
Input #0, mov,mp4,m4a,3gp,3g2,mj2, from './videos/muxed.mp4':
  Metadata:
    major_brand     : isom
    minor_version   : 512
    compatible_brands: isomiso2avc1mp41
    encoder         : Lavf58.29.100
  Duration: 00:00:50.26, start: 0.000000, bitrate: 395 kb/s
    Stream #0:0(und): Video: h264 (Main) (avc1 / 0x31637661), yuv420p(tv, smpte170m/bt470bg/bt709), 638x360 [SAR 1:1 DAR 319:180], 200 kb/s, 23.98 fps, 24 tbr, 12288 tbn, 48 tbc (default)
    Metadata:
      handler_name    : ISO Media file produced by Google Inc. Created on: 10/06/2024.
    Stream #0:1(und): Audio: mp3 (mp4a / 0x6134706D), 44100 Hz, stereo, fltp, 191 kb/s (default)
    Metadata:
      handler_name    : SoundHandler
[Parsed_subtitles_1 @ 0x55a25ec57780] Shaper: FriBidi 0.19.7 (SIMPLE) HarfBuzz-ng 2.6.4 (COMPLEX)
[Parsed_subtitles_1 @ 0x55a25ec57780] Loading font file './fonts/CamingoCode-Bold.ttf'
[Parsed_subtitles_1 @ 0x55a25ec57780] Loading font file './fonts/CamingoCode-BoldItalic.ttf'
[Parsed_subtitles_1 @ 0x55a25ec57780] Loading font file './fonts/Creative Commons Attribution-No Derivative Works.txt'
[Parsed_subtitles_1 @ 0x55a25ec57780] Loading font file './fonts/CamingoCode-Regular.ttf'
[Parsed_subtitles_1 @ 0x55a25ec57780] Loading font file './fonts/LPMQ IsepMisbah.ttf'
[Parsed_subtitles_1 @ 0x55a25ec57780] Loading font file './fonts/CamingoCode-Italic.ttf'
[Parsed_subtitles_1 @ 0x55a25ec57780] Error opening memory font 'Creative Commons Attribution-No Derivative Works.txt'
[Parsed_subtitles_1 @ 0x55a25ec57780] Using font provider fontconfig
Stream mapping:
  Stream #0:0 (h264) -> drawbox
  subtitles -> Stream #0:0 (libx264)
  Stream #0:1 -> #0:1 (copy)
Press [q] to stop, [?] for help
[Parsed_subtitles_1 @ 0x55a25ecfb540] Shaper: FriBidi 0.19.7 (SIMPLE) HarfBuzz-ng 2.6.4 (COMPLEX)[Parsed_subtitles_1 @ 0x55a25ecfb540] 
[Parsed_subtitles_1 @ 0x55a25ecfb540] Loading font file './fonts/CamingoCode-Bold.ttf'
[Parsed_subtitles_1 @ 0x55a25ecfb540] Loading font file './fonts/CamingoCode-BoldItalic.ttf'
[Parsed_subtitles_1 @ 0x55a25ecfb540] Loading font file './fonts/Creative Commons Attribution-No Derivative Works.txt'
[Parsed_subtitles_1 @ 0x55a25ecfb540] Loading font file './fonts/CamingoCode-Regular.ttf'
[Parsed_subtitles_1 @ 0x55a25ecfb540] Loading font file './fonts/LPMQ IsepMisbah.ttf'
[Parsed_subtitles_1 @ 0x55a25ecfb540] Loading font file './fonts/CamingoCode-Italic.ttf'
[Parsed_subtitles_1 @ 0x55a25ecfb540] Error opening memory font 'Creative Commons Attribution-No Derivative Works.txt'
[Parsed_subtitles_1 @ 0x55a25ecfb540] Using font provider fontconfig
[Parsed_subtitles_1 @ 0x55a25ecfb540] fontselect: (Arial, 400, 0) -> /usr/share/fonts/truetype/msttcorefonts/Arial.ttf, 0, ArialMT
[Parsed_subtitles_1 @ 0x55a25ecfb540] fontselect: (LPMQ Isep Misbah, 400, 0) -> LPMQIsepMisbah, 0, LPMQIsepMisbah
[Parsed_subtitles_1 @ 0x55a25ecfb540] fontselect: (camingocode, 400, 0) -> CamingoCode-Regular, 0, CamingoCode-Regular
[Parsed_subtitles_1 @ 0x55a25ecfb540] Glyph 0x1E2B not found, selecting one more font for (Arial, 400, 0)
[Parsed_subtitles_1 @ 0x55a25ecfb540] fontselect: (Arial, 400, 0) -> /usr/share/fonts/truetype/liberation2/LiberationSans-Regular.ttf, 0, LiberationSans
[libx264 @ 0x55a25ed6a240] using SAR=1/1
[libx264 @ 0x55a25ed6a240] using cpu capabilities: MMX2 SSE2Fast SSSE3 SSE4.2 AVX FMA3 BMI2 AVX2
[libx264 @ 0x55a25ed6a240] profile High, level 3.0
[libx264 @ 0x55a25ed6a240] 264 - core 155 r2917 0a84d98 - H.264/MPEG-4 AVC codec - Copyleft 2003-2018 - http://www.videolan.org/x264.html - options: cabac=1 ref=3 deblock=1:0:0 analyse=0x3:0x113 me=hex subme=7 psy=1 psy_rd=1.00:0.00 mixed_ref=1 me_range=16 chroma_me=1 trellis=1 8x8dct=1 cqm=0 deadzone=21,11 fast_pskip=1 chroma_qp_offset=-2 threads=6 lookahead_threads=1 sliced_threads=0 nr=0 decimate=1 interlaced=0 bluray_compat=0 constrained_intra=0 bframes=3 b_pyramid=2 b_adapt=1 b_bias=0 direct=1 weightb=1 open_gop=0 weightp=2 keyint=250 keyint_min=24 scenecut=40 intra_refresh=0 rc_lookahead=40 rc=crf mbtree=1 crf=23.0 qcomp=0.60 qpmin=0 qpmax=69 qpstep=4 ip_ratio=1.40 aq=1:1.00
Output #0, mp4, to './output/subtitle.mp4':
  Metadata:
    major_brand     : isom
    minor_version   : 512
    compatible_brands: isomiso2avc1mp41
    encoder         : Lavf58.29.100
    Stream #0:0: Video: h264 (libx264) (avc1 / 0x31637661), yuv420p, 638x360 [SAR 1:1 DAR 319:180], q=-1--1, 24 fps, 12288 tbn, 24 tbc (default)
    Metadata:
      encoder         : Lavc58.54.100 libx264
    Side data:
      cpb: bitrate max/min/avg: 0/0/0 buffer size: 0 vbv_delay: -1
    Stream #0:1(und): Audio: mp3 (mp4a / 0x6134706D), 44100 Hz, stereo, fltp, 191 kb/s (default)
    Metadata:
      handler_name    : SoundHandler
frame=  100 fps=0.0 q=28.0 size=       0kB time=00:00:04.31 bitrate=   0.1kbits/s speed=8.55x    frame=  193 fps=192 q=28.0 size=     256kB time=00:00:08.17 bitrate= 256.5kbits/s speed=8.13x    frame=  290 fps=192 q=28.0 size=     256kB time=00:00:12.22 bitrate= 171.6kbits/s speed=8.08x    frame=  418 fps=206 q=28.0 size=     768kB time=00:00:17.55 bitrate= 358.4kbits/s speed=8.65x    frame=  525 fps=207 q=28.0 size=     768kB time=00:00:21.99 bitrate= 286.0kbits/s dup=1 drop=0 speed=8.68x    [Parsed_subtitles_1 @ 0x55a25ecfb540] fontselect: (CamingoCode-Regular, 400, 0) -> /usr/share/fonts/truetype/dejavu/DejaVuSans.ttf, 0, DejaVuSans
frame=  628 fps=207 q=28.0 size=    1024kB time=00:00:26.28 bitrate= 319.2kbits/s dup=1 drop=0 speed=8.64x    frame=  722 fps=204 q=28.0 size=    1280kB time=00:00:30.22 bitrate= 346.9kbits/s dup=1 drop=0 speed=8.52x    frame=  798 fps=197 q=28.0 size=    1536kB time=00:00:33.38 bitrate= 376.9kbits/s dup=1 drop=0 speed=8.24x    frame=  874 fps=192 q=28.0 size=    1536kB time=00:00:36.54 bitrate= 344.3kbits/s dup=1 drop=0 speed=8.03x    frame=  954 fps=189 q=28.0 size=    1792kB time=00:00:39.89 bitrate= 368.0kbits/s dup=1 drop=0 speed=7.89x    frame= 1038 fps=187 q=28.0 size=    2048kB time=00:00:43.39 bitrate= 386.7kbits/s dup=1 drop=0 speed= 7.8x    frame= 1124 fps=185 q=28.0 size=    2048kB time=00:00:46.96 bitrate= 357.2kbits/s dup=1 drop=0 speed=7.75x    frame= 1206 fps=182 q=-1.0 Lsize=    2530kB time=00:00:50.12 bitrate= 413.5kbits/s dup=1 drop=0 speed=7.57x    
video:1332kB audio:1155kB subtitle:0kB other streams:0kB global headers:0kB muxing overhead: 1.738747%
[libx264 @ 0x55a25ed6a240] frame I:5     Avg QP:16.77  size: 41404
[libx264 @ 0x55a25ed6a240] frame P:310   Avg QP:20.06  size:  3043
[libx264 @ 0x55a25ed6a240] frame B:891   Avg QP:26.67  size:   239
[libx264 @ 0x55a25ed6a240] consecutive B-frames:  0.7%  2.0%  0.7% 96.5%
[libx264 @ 0x55a25ed6a240] mb I  I16..4:  9.9% 25.8% 64.3%
[libx264 @ 0x55a25ed6a240] mb P  I16..4:  0.7%  1.8%  1.3%  P16..4: 18.9%  7.1%  4.5%  0.0%  0.0%    skip:65.7%
[libx264 @ 0x55a25ed6a240] mb B  I16..4:  0.0%  0.0%  0.0%  B16..8: 14.9%  0.6%  0.1%  direct: 0.3%  skip:84.1%  L0:39.5% L1:55.6% BI: 4.9%
[libx264 @ 0x55a25ed6a240] 8x8 transform intra:41.2% inter:56.9%
[libx264 @ 0x55a25ed6a240] coded y,uvDC,uvAC intra: 71.6% 51.7% 26.5% inter: 4.3% 2.5% 0.6%
[libx264 @ 0x55a25ed6a240] i16 v,h,dc,p: 17% 34% 25% 24%
[libx264 @ 0x55a25ed6a240] i8 v,h,dc,ddl,ddr,vr,hd,vl,hu: 21% 20% 20%  6%  6%  6%  7%  6%  8%
[libx264 @ 0x55a25ed6a240] i4 v,h,dc,ddl,ddr,vr,hd,vl,hu: 28% 23% 13%  5%  7%  6%  6%  5%  5%
[libx264 @ 0x55a25ed6a240] i8c dc,h,v,p: 56% 21% 17%  6%
[libx264 @ 0x55a25ed6a240] Weighted P-Frames: Y:0.0% UV:0.0%
[libx264 @ 0x55a25ed6a240] ref P L0: 64.7% 16.5% 15.0%  3.8%
[libx264 @ 0x55a25ed6a240] ref B L0: 89.0%  7.8%  3.2%
[libx264 @ 0x55a25ed6a240] ref B L1: 95.2%  4.8%
[libx264 @ 0x55a25ed6a240] kb/s:217.07
